<?xml version="1.0" encoding="UTF-8"?>
<svg version="1.1" xmlns="http://www.w3.org/2000/svg" width="192" height="192">
<path d="M0 0 C0.99480377 -0.00846954 1.98960754 -0.01693909 3.01455688 -0.02566528 C6.27969405 -0.04892542 9.5443568 -0.05005988 12.80957031 -0.04882812 C15.09727157 -0.05593736 17.38497107 -0.06363746 19.67266846 -0.07189941 C24.46054035 -0.08531985 29.24824742 -0.08692437 34.03613281 -0.08105469 C40.1432551 -0.07516742 46.24958002 -0.10572235 52.35654831 -0.14617157 C57.08034455 -0.17214337 61.80395136 -0.17491725 66.52780914 -0.17127991 C68.77786509 -0.17296292 71.02793057 -0.18252573 73.27791595 -0.20042419 C92.78473728 -0.33851056 107.46162667 2.78761247 122.32519531 16.48242188 C132.39853862 27.0621451 138.10396971 40.23565828 138.05761719 54.78222656 C138.06608673 55.77703033 138.07455627 56.77183411 138.08328247 57.79678345 C138.1065426 61.06192062 138.10767706 64.32658336 138.10644531 67.59179688 C138.11355455 69.87949814 138.12125465 72.16719763 138.1295166 74.45489502 C138.14293703 79.24276691 138.14454156 84.03047398 138.13867188 88.81835938 C138.13278461 94.92548166 138.16333953 101.03180658 138.20378876 107.13877487 C138.22976055 111.86257111 138.23253444 116.58617792 138.22889709 121.31003571 C138.23058011 123.56009165 138.24014291 125.81015713 138.25804138 128.06014252 C138.39612775 147.56696384 135.27000471 162.24385323 121.57519531 177.10742188 C110.99547209 187.18076519 97.82195891 192.88619627 83.27539062 192.83984375 C82.28058685 192.84831329 81.28578308 192.85678284 80.26083374 192.86550903 C76.99569657 192.88876917 73.73103383 192.88990363 70.46582031 192.88867188 C68.17811905 192.89578111 65.89041956 192.90348121 63.60272217 192.91174316 C58.81485028 192.9251636 54.0271432 192.92676812 49.23925781 192.92089844 C43.13213552 192.91501117 37.02581061 192.9455661 30.91884232 192.98601532 C26.19504607 193.01198712 21.47143927 193.014761 16.74758148 193.01112366 C14.49752554 193.01280667 12.24746006 193.02236948 9.99747467 193.04026794 C-9.50934665 193.17835431 -24.18623604 190.05223128 -39.04980469 176.35742188 C-49.123148 165.77769865 -54.82857908 152.60418547 -54.78222656 138.05761719 C-54.79069611 137.06281342 -54.79916565 136.06800964 -54.80789185 135.0430603 C-54.83115198 131.77792313 -54.83228644 128.51326039 -54.83105469 125.24804688 C-54.83816392 122.96034561 -54.84586403 120.67264612 -54.85412598 118.38494873 C-54.86754641 113.59707684 -54.86915093 108.80936977 -54.86328125 104.02148438 C-54.85739399 97.91436209 -54.88794891 91.80803717 -54.92839813 85.70106888 C-54.95436993 80.97727264 -54.95714381 76.25366583 -54.95350647 71.52980804 C-54.95518949 69.2797521 -54.96475229 67.02968662 -54.98265076 64.77970123 C-55.12073712 45.27287991 -51.99461409 30.59599052 -38.29980469 15.73242188 C-27.72008146 5.65907856 -14.54656828 -0.04635252 0 0 Z M26.63769531 45.41992188 C26.63769531 48.71992187 26.63769531 52.01992188 26.63769531 55.41992188 C28.28769531 55.41992188 29.93769531 55.41992188 31.63769531 55.41992188 C31.39535156 56.41846191 31.15300781 57.41700195 30.90332031 58.44580078 C30.00191109 62.16779791 29.10950067 65.89190507 28.21972656 69.61669922 C27.83414023 71.22535762 27.44614943 72.83344173 27.05566406 74.44091797 C26.49326299 76.75795301 25.9396781 79.07694828 25.38769531 81.39648438 C25.21270508 82.10922516 25.03771484 82.82196594 24.85742188 83.55630493 C23.9072341 87.59191445 23.45630563 91.2763014 23.63769531 95.41992188 C19.60717137 93.2927009 17.38260216 91.02261212 14.63769531 87.41992188 C12.98670383 85.73772608 11.31754606 84.07329933 9.63769531 82.41992188 C7.76129433 80.567173 5.88631848 78.71297981 4.01269531 76.85742188 C3.53574219 76.38884766 3.05878906 75.92027344 2.56738281 75.4375 C0.59004236 73.47389108 -1.20925794 71.67225465 -2.65991211 69.28051758 C-4.24897485 67.16244803 -4.24897485 67.16244803 -6.99780273 66.96582031 C-8.02945557 66.98676758 -9.0611084 67.00771484 -10.12402344 67.02929688 C-11.80141602 67.04863281 -11.80141602 67.04863281 -13.51269531 67.06835938 C-14.67994141 67.101875 -15.8471875 67.13539062 -17.04980469 67.16992188 C-18.81807617 67.19699219 -18.81807617 67.19699219 -20.62207031 67.22460938 C-23.53629395 67.27180328 -26.448895 67.33763111 -29.36230469 67.41992188 C-29.36230469 70.71992187 -29.36230469 74.01992187 -29.36230469 77.41992188 C-27.71230469 77.41992188 -26.06230469 77.41992188 -24.36230469 77.41992188 C-24.36230469 90.28992188 -24.36230469 103.15992188 -24.36230469 116.41992188 C-26.01230469 116.41992188 -27.66230469 116.41992188 -29.36230469 116.41992188 C-29.36230469 119.71992187 -29.36230469 123.01992187 -29.36230469 126.41992188 C-21.77230469 126.41992188 -14.18230469 126.41992188 -6.36230469 126.41992188 C-6.36230469 123.11992188 -6.36230469 119.81992188 -6.36230469 116.41992188 C-8.34230469 116.41992188 -10.32230469 116.41992188 -12.36230469 116.41992188 C-12.36230469 103.54992187 -12.36230469 90.67992187 -12.36230469 77.41992188 C-3.46630469 85.20392187 -3.46630469 85.20392187 0.01269531 89.35742188 C1.17844005 90.74842008 2.37676365 92.11459121 3.63769531 93.41992188 C4.29769531 93.41992188 4.95769531 93.41992188 5.63769531 93.41992188 C5.86457031 93.97679687 6.09144531 94.53367188 6.32519531 95.10742188 C8.31748605 98.61764842 11.25360987 101.28578415 14.36816406 103.83789062 C16.30394179 105.63191804 17.50424972 107.02519848 18.63769531 109.41992188 C18.69868782 113.92116904 17.70127901 118.06359959 16.63769531 122.41992188 C16.36570313 123.62777344 16.09371094 124.835625 15.81347656 126.08007812 C15.30116271 128.33675817 14.77272459 130.58987627 14.22363281 132.83789062 C13.56392789 135.30371034 13.56392789 135.30371034 13.63769531 137.41992188 C11.98769531 137.41992188 10.33769531 137.41992188 8.63769531 137.41992188 C8.63769531 140.71992188 8.63769531 144.01992187 8.63769531 147.41992188 C15.89769531 147.41992188 23.15769531 147.41992188 30.63769531 147.41992188 C30.63769531 144.11992187 30.63769531 140.81992188 30.63769531 137.41992188 C28.65769531 137.41992188 26.67769531 137.41992188 24.63769531 137.41992188 C25.10949219 135.51146484 25.10949219 135.51146484 25.59082031 133.56445312 C28.04198894 123.52853629 30.25746551 113.49901569 32.10839844 103.33520508 C33.48536534 95.90613415 35.20462468 88.58039954 37.06347656 81.2578125 C38.06516656 77.23530267 38.94634257 73.60380697 38.63769531 69.41992188 C39.62769531 69.41992188 40.61769531 69.41992188 41.63769531 69.41992188 C41.59644531 70.45117188 41.55519531 71.48242188 41.51269531 72.54492188 C41.44443426 76.26309016 41.44443426 76.26309016 42.51660156 79.00585938 C44.01660743 83.57382149 44.83395033 88.19674581 45.70019531 92.91992188 C45.87357422 93.84417969 46.04695313 94.7684375 46.22558594 95.72070312 C46.55797728 97.50109813 46.88343069 99.28280664 47.20092773 101.06591797 C47.56157172 103.00964591 47.9927581 104.94014217 48.44238281 106.86523438 C48.63769531 109.41992188 48.63769531 109.41992188 47.42285156 111.31835938 C46.854375 111.805625 46.28589844 112.29289062 45.70019531 112.79492188 C45.13429688 113.29765625 44.56839844 113.80039063 43.98535156 114.31835938 C43.540625 114.681875 43.09589844 115.04539062 42.63769531 115.41992188 C39.6835983 114.04837684 37.19761155 112.43128464 34.63769531 110.41992188 C33.05920422 115.25405084 32.23334459 119.26445021 32.63769531 124.41992188 C35.39107505 127.17330161 37.10984772 126.75142983 40.95019531 126.79492188 C42.08070312 126.82328125 43.21121094 126.85164063 44.37597656 126.88085938 C48.22510415 126.33691081 49.85540059 125.06127484 52.63769531 122.41992188 C52.77046875 123.33515625 52.90324219 124.25039062 53.04003906 125.19335938 C53.30494141 126.97613281 53.30494141 126.97613281 53.57519531 128.79492188 C53.83623047 130.56996094 53.83623047 130.56996094 54.10253906 132.38085938 C54.47232318 135.32694568 54.47232318 135.32694568 55.63769531 137.41992188 C53.65769531 137.41992188 51.67769531 137.41992188 49.63769531 137.41992188 C49.63769531 140.71992188 49.63769531 144.01992187 49.63769531 147.41992188 C56.89769531 147.41992188 64.15769531 147.41992188 71.63769531 147.41992188 C71.63769531 144.11992187 71.63769531 140.81992188 71.63769531 137.41992188 C69.65769531 137.41992188 67.67769531 137.41992188 65.63769531 137.41992188 C65.71117188 136.00646484 65.71117188 136.00646484 65.78613281 134.56445312 C65.78362088 129.56695639 64.49335795 124.92290799 63.26269531 120.10742188 C60.68299581 109.79612299 60.68299581 109.79612299 59.68847656 104.63867188 C58.4189805 98.11615497 56.78786409 91.68334872 55.20019531 85.23242188 C52.78363004 75.33217887 50.4563945 65.44874882 48.63769531 55.41992188 C50.28769531 55.41992188 51.93769531 55.41992188 53.63769531 55.41992188 C53.63769531 52.11992188 53.63769531 48.81992187 53.63769531 45.41992188 C44.72769531 45.41992188 35.81769531 45.41992188 26.63769531 45.41992188 Z M82.01269531 71.98242188 C80.84867597 73.77011319 79.72059052 75.58195582 78.63769531 77.41992188 C77.40882903 78.73137999 76.1399707 80.00710543 74.82519531 81.23242188 C72.19795585 83.81134429 69.92070099 86.52811469 67.63769531 89.41992188 C66.73019531 90.20367187 65.82269531 90.98742187 64.88769531 91.79492188 C62.33458888 94.286811 62.33458888 94.286811 62.20019531 97.85742188 C62.62278898 101.29854173 63.38000767 104.19709728 64.63769531 107.41992188 C64.96769531 106.75992188 65.29769531 106.09992188 65.63769531 105.41992188 C67.12269531 104.92492187 67.12269531 104.92492187 68.63769531 104.41992188 C70.26408021 102.84159527 70.26408021 102.84159527 71.84863281 100.87695312 C75.54934831 96.51796532 79.37073404 92.29602654 83.26269531 88.10742188 C83.90464844 87.40552734 84.54660156 86.70363281 85.20800781 85.98046875 C85.83707031 85.30435547 86.46613281 84.62824219 87.11425781 83.93164062 C87.67193848 83.32795654 88.22961914 82.72427246 88.80419922 82.10229492 C90.63769531 80.41992188 90.63769531 80.41992188 95.63769531 77.41992188 C95.63769531 90.28992188 95.63769531 103.15992188 95.63769531 116.41992188 C93.65769531 116.41992188 91.67769531 116.41992188 89.63769531 116.41992188 C89.63769531 119.71992187 89.63769531 123.01992187 89.63769531 126.41992188 C97.22769531 126.41992188 104.81769531 126.41992188 112.63769531 126.41992188 C112.63769531 123.11992188 112.63769531 119.81992188 112.63769531 116.41992188 C110.98769531 116.41992188 109.33769531 116.41992188 107.63769531 116.41992188 C107.63769531 103.54992187 107.63769531 90.67992187 107.63769531 77.41992188 C109.28769531 77.41992188 110.93769531 77.41992188 112.63769531 77.41992188 C112.63769531 74.11992188 112.63769531 70.81992188 112.63769531 67.41992188 C95.94881131 65.21657298 95.94881131 65.21657298 82.01269531 71.98242188 Z " fill="#323232" transform="translate(54.3623046875,-0.419921875)"/>
</svg>
